<svg id="Calque_1" data-name="Calque 1" xmlns="http://www.w3.org/2000/svg" viewBox="0 0 403.62 362.14"><defs><style>.cls-1{fill:#d52085;}.cls-2{fill:#ea560d;}.cls-3{fill:#fcca2f;}.cls-4{fill:#8bbe31;}.cls-5{fill:#00a6bf;}.cls-6{fill:#8d7f9b;}.cls-7{fill:#5d534e;}</style></defs><polygon class="cls-1" points="201.17 0 91.19 154.88 218.57 24.81 201.17 0"/><polygon class="cls-2" points="61.68 195.11 236.68 50.96 254.78 74.42 61.68 195.11"/><polygon class="cls-3" points="45.59 220.59 268.86 94.54 288.98 123.03 45.59 220.59"/><polygon class="cls-4" points="26.15 246.74 303.05 142.81 325.18 174.32 26.15 246.74"/><polygon class="cls-5" points="10.73 269.53 339.93 195.11 360.71 225.28 10.73 269.53"/><polygon class="cls-6" points="0 284.95 403.62 284.95 372.78 242.04 0 284.95"/><path class="cls-7" d="M528,441.79c0-9.7-1.86-13.34-8.73-16.17l-6.8-2.75c-4-1.62-4.77-3.08-4.77-7.77,0-2.51.49-4.45,1.54-5.66a4.85,4.85,0,0,1,3.88-1.62,4.76,4.76,0,0,1,4,1.7c1.22,1.54,1.38,3.56,1.38,6.15h9.06c0-5.5-1-9.63-4-12.54-2.34-2.26-5.74-3.48-10.35-3.48a14.53,14.53,0,0,0-9.87,3.48c-3.15,2.83-4.69,7-4.69,12.21,0,8.9,2.19,12.06,8,14.48l6.87,2.83C518,434.43,519,436,519,442.12c0,3.07-.32,5-1.53,6.39-.89,1.05-2.27,1.62-4.37,1.62a5.49,5.49,0,0,1-4.21-1.54c-1.29-1.46-1.61-3.4-1.61-6.47H498.2c0,6.06,1,9.62,3.72,12.37,2.42,2.43,6.14,3.81,11.16,3.81s8.9-1.54,11.24-3.81c2.91-2.83,3.72-6.79,3.72-12.7" transform="translate(-230.95 -96.16)"/><path class="cls-7" d="M251.19,417.69c0,5.82-1.21,9.3-6.06,9.3H240V408.31h5.1c4.85,0,6.06,3.56,6.06,9.38m9.06,0c0-12.05-4.36-17.55-14.8-17.55H231v57.59H240V435.16h5.42c10.44,0,14.8-5.42,14.8-17.47" transform="translate(-230.95 -96.16)"/><path class="cls-7" d="M343.17,417.12c0,4.78-.73,8.82-5.58,8.82H332V408.31h5.58c4.85,0,5.58,4,5.58,8.81m10.92,40.61-8.57-25.56c5.25-2.83,6.71-7.93,6.71-15.05,0-11.89-4.2-17-14.72-17H323v57.59H332V434.11h5.09l7.53,23.62Z" transform="translate(-230.95 -96.16)"/><rect class="cls-7" x="191" y="303.98" width="9.06" height="57.59"/><polygon class="cls-7" points="395.25 303.98 384.17 334.23 373 303.98 364.84 303.98 364.84 361.57 373.89 361.57 373.89 326.06 381.58 349.28 386.59 349.28 394.44 325.66 394.44 361.57 403.5 361.57 403.5 303.98 395.25 303.98"/></svg>